<?xml version="1.0" standalone="no"?>
<!DOCTYPE svg PUBLIC "-//W3C//DTD SVG 20010904//EN"
 "http://www.w3.org/TR/2001/REC-SVG-20010904/DTD/svg10.dtd">
<svg version="1.0" xmlns="http://www.w3.org/2000/svg"
 width="1024.000000pt" height="1024.000000pt" viewBox="0 0 1024.000000 1024.000000"
 preserveAspectRatio="xMidYMid meet">

<g transform="translate(0.000000,1024.000000) scale(0.100000,-0.100000)"
fill="#000000" stroke="none">
<path d="M4980 9354 c-126 -24 -187 -45 -485 -168 l-209 -86 -303 -7 c-167 -3
-306 -10 -309 -15 -3 -4 -23 -8 -44 -8 -21 0 -42 -4 -45 -10 -3 -5 -19 -10
-35 -10 -16 0 -32 -4 -35 -10 -3 -5 -17 -10 -30 -10 -13 0 -27 -4 -30 -10 -3
-5 -15 -10 -26 -10 -10 0 -19 -4 -19 -10 0 -5 -6 -10 -13 -10 -18 0 -67 -24
-67 -32 0 -5 -9 -8 -20 -8 -11 0 -20 -4 -20 -8 0 -5 -12 -15 -27 -23 -15 -8
-115 -102 -223 -209 -107 -107 -211 -205 -230 -217 -19 -12 -111 -53 -205 -91
-386 -159 -433 -184 -556 -299 -87 -83 -137 -145 -187 -233 -27 -47 -127 -282
-213 -495 -21 -52 -49 -85 -219 -260 -108 -110 -211 -222 -230 -250 -19 -27
-37 -51 -42 -53 -4 -2 -8 -12 -8 -22 0 -10 -3 -20 -7 -22 -11 -4 -53 -87 -53
-104 0 -8 -4 -14 -10 -14 -5 0 -10 -11 -10 -24 0 -14 -4 -28 -10 -31 -5 -3
-10 -17 -10 -30 0 -13 -4 -27 -10 -30 -5 -3 -10 -26 -10 -50 0 -24 -4 -47 -10
-50 -6 -4 -10 -115 -10 -302 l0 -295 -54 -137 c-30 -75 -79 -194 -109 -266
-86 -207 -101 -274 -101 -445 -1 -211 1 -216 226 -755 l33 -80 7 -300 c6 -310
13 -405 29 -405 5 0 9 -11 9 -25 0 -13 5 -37 11 -52 6 -15 15 -37 19 -48 17
-45 75 -155 82 -155 5 0 8 -8 8 -18 0 -10 9 -24 20 -32 11 -8 20 -20 20 -27 0
-7 5 -13 10 -13 6 0 10 -5 10 -11 0 -6 84 -95 186 -199 102 -104 192 -197 199
-207 6 -10 56 -124 109 -253 106 -255 147 -335 212 -421 66 -86 193 -199 277
-248 70 -39 284 -132 492 -214 78 -30 85 -36 285 -232 239 -234 261 -252 388
-317 179 -90 225 -99 617 -107 l310 -6 245 -102 c306 -126 403 -153 558 -153
177 0 268 25 587 159 l230 96 310 6 c178 4 331 12 360 18 28 7 65 15 83 18 17
3 32 9 32 14 0 5 14 9 30 9 17 0 30 5 30 10 0 6 6 10 14 10 18 0 136 61 160
83 11 9 23 17 28 17 14 0 157 132 357 330 l116 115 220 89 c260 106 317 133
410 196 70 48 174 149 232 225 52 68 98 162 198 399 52 125 99 234 103 241 4
7 92 101 196 209 103 108 198 208 209 223 12 16 24 30 27 33 5 5 17 26 44 75
6 11 13 22 16 25 12 12 30 51 30 65 0 8 5 15 10 15 6 0 10 9 10 19 0 11 5 23
10 26 6 3 10 17 10 30 0 13 5 27 10 30 6 3 10 21 10 39 0 17 4 36 9 42 16 17
23 104 29 404 l7 295 103 249 c137 329 145 361 146 556 1 179 -13 246 -91 435
-25 60 -72 174 -104 253 l-59 143 0 188 c0 103 -4 223 -10 267 -5 43 -12 104
-15 134 -9 98 -17 145 -26 154 -5 6 -9 20 -9 32 0 13 -4 26 -10 29 -5 3 -10
17 -10 31 0 13 -4 24 -10 24 -5 0 -10 9 -10 20 0 11 -4 20 -10 20 -5 0 -10 9
-10 20 0 11 -4 20 -9 20 -5 0 -11 8 -14 18 -8 24 -39 74 -57 92 -9 8 -27 31
-40 50 -14 19 -95 105 -181 192 -86 86 -168 172 -182 190 -14 18 -61 121 -105
228 -148 359 -184 422 -310 552 -127 131 -212 180 -567 323 -104 42 -204 87
-221 100 -17 13 -105 97 -196 187 -90 90 -184 179 -209 198 -24 19 -45 38 -47
42 -2 4 -10 8 -18 8 -8 0 -24 9 -36 20 -12 11 -28 20 -35 20 -7 0 -13 5 -13
10 0 6 -7 10 -15 10 -8 0 -23 4 -33 9 -9 5 -30 14 -47 21 -16 7 -38 16 -47 21
-10 5 -28 9 -41 9 -13 0 -27 4 -33 9 -18 17 -100 23 -404 30 l-305 6 -245 104
c-315 132 -384 152 -560 156 -74 2 -146 1 -160 -1z m320 -111 c63 -13 312
-105 360 -133 9 -6 -212 -10 -542 -10 -307 0 -558 2 -558 4 0 6 237 102 310
125 126 41 279 46 430 14z m-1262 -243 c-14 -9 -922 -387 -988 -412 -33 -12
144 168 230 234 120 92 292 162 445 181 71 9 330 6 313 -3z m2617 -299 l730
-303 570 -569 570 -569 308 -744 307 -744 -2 -799 -3 -798 -286 -685 c-157
-377 -296 -708 -308 -735 -18 -43 -113 -142 -584 -613 l-562 -562 -736 -305
-737 -305 -805 0 -805 0 -734 302 -733 303 -570 570 -570 570 -304 738 -303
738 1 797 1 797 307 742 307 742 570 568 571 568 619 255 c341 140 672 276
735 302 l116 48 800 -3 800 -2 730 -304z m-40 284 c93 -21 205 -70 291 -128
78 -52 314 -284 274 -269 -67 25 -977 405 -990 413 -25 17 345 2 425 -16z
m-4063 -742 c-67 -80 -732 -739 -732 -726 0 26 116 283 158 348 78 122 209
243 332 306 51 26 261 117 273 118 5 1 -9 -20 -31 -46z m5221 -8 c174 -73 253
-122 349 -213 96 -92 157 -181 218 -321 98 -222 124 -238 -312 194 -216 215
-394 391 -397 393 -2 1 -1 2 3 2 4 0 66 -25 139 -55z m-6272 -1212 c-54 -137
-393 -948 -397 -953 -3 -3 -4 83 -1 190 5 214 14 261 72 387 52 113 101 179
224 306 63 64 116 117 118 117 1 0 -6 -21 -16 -47z m7504 -277 c96 -155 140
-354 133 -596 l-3 -105 -209 505 c-115 278 -211 510 -213 515 -3 6 51 -46 119
-115 81 -82 141 -152 173 -204z m289 -1343 c74 -180 96 -271 96 -405 0 -60 -7
-144 -16 -186 -13 -65 -106 -322 -135 -372 -5 -8 -9 229 -9 544 0 308 2 557 5
555 2 -3 29 -64 59 -136z m-8295 -946 c-6 -21 -1 -30 -79 163 -75 187 -96 347
-66 515 16 90 27 121 94 285 l47 115 5 -530 c3 -291 2 -538 -1 -548z m508
-1540 c-4 -12 -189 183 -243 256 -37 49 -100 168 -124 232 -11 28 -28 93 -36
135 -9 50 -16 319 -9 349 5 19 52 -86 211 -469 112 -272 203 -499 201 -503z
m7630 826 c-4 -93 -13 -197 -21 -233 -21 -100 -70 -217 -125 -300 -47 -72
-259 -306 -268 -296 -4 3 388 962 404 989 14 23 15 -9 10 -160z m-6561 -2050
c-1 -1 -63 23 -137 54 -246 103 -381 215 -487 403 -34 61 -132 288 -131 305 0
5 171 -163 379 -375 208 -211 378 -386 376 -387z m5835 745 c-52 -132 -106
-251 -141 -310 -51 -86 -189 -229 -274 -283 -50 -32 -323 -155 -344 -155 -4 0
166 173 378 385 212 212 386 385 387 385 1 0 -1 -10 -6 -22z m-4866 -1260
l489 -203 -154 -3 c-318 -6 -493 66 -733 299 -62 59 -107 108 -102 109 6 0
230 -91 500 -202z m3529 84 c-233 -226 -406 -296 -722 -290 l-153 3 488 202
c268 111 493 202 498 202 6 0 -44 -52 -111 -117z m-1419 -401 c-20 -17 -292
-119 -355 -132 -106 -23 -309 -18 -403 9 -71 20 -279 101 -317 123 -9 5 221 9
535 9 306 0 545 -4 540 -9z"/>
<path d="M6210 5915 l0 -45 45 0 45 0 0 45 0 45 -45 0 -45 0 0 -45z"/>
<path d="M4497 5919 c-125 -29 -211 -128 -237 -270 -25 -137 11 -271 95 -355
43 -44 65 -56 125 -75 118 -35 241 -17 328 48 33 25 92 98 92 114 0 9 -53 39
-68 39 -4 0 -23 -20 -40 -46 -77 -108 -247 -126 -351 -38 -61 53 -86 120 -86
235 0 87 3 101 30 154 53 104 169 149 292 115 45 -13 115 -69 125 -100 4 -13
10 -13 52 0 l47 15 -30 47 c-16 26 -48 59 -70 74 -71 47 -206 66 -304 43z"/>
<path d="M3070 5565 l0 -355 280 0 280 0 0 40 0 40 -230 0 -230 0 0 125 0 125
205 0 205 0 0 35 0 35 -205 0 -205 0 0 115 0 115 220 0 220 0 0 40 0 40 -270
0 -270 0 0 -355z"/>
<path d="M5201 5738 c-104 -51 -149 -225 -100 -388 20 -65 82 -124 149 -140
92 -22 204 3 252 57 43 47 62 114 62 218 0 104 -19 170 -62 219 -52 58 -215
77 -301 34z m208 -65 c46 -35 56 -68 56 -193 0 -101 -3 -119 -22 -151 -27 -43
-59 -59 -119 -59 -101 0 -136 47 -142 191 -6 137 15 194 83 226 39 17 110 11
144 -14z"/>
<path d="M5927 5749 c-9 -5 -28 -31 -42 -57 l-24 -47 -1 53 0 52 -46 0 c-38 0
-45 -3 -40 -16 3 -9 6 -130 6 -270 l0 -254 45 0 45 0 0 180 c0 141 3 188 16
219 20 49 51 71 104 71 l40 0 0 40 0 40 -42 0 c-24 0 -51 -5 -61 -11z"/>
<path d="M6624 5741 c-41 -19 -75 -57 -88 -97 -5 -18 -1 -22 25 -28 53 -10 69
-7 69 13 0 46 89 80 160 61 47 -13 70 -48 70 -108 l0 -39 -108 -5 c-175 -7
-234 -48 -240 -168 -3 -55 0 -70 20 -100 62 -93 209 -95 294 -4 l42 44 6 -35
c9 -48 41 -67 108 -63 49 3 53 5 53 28 0 20 -6 26 -27 28 -47 6 -51 21 -58
215 -6 207 -11 221 -84 257 -57 27 -183 28 -242 1z m236 -310 c0 -87 -62 -151
-154 -159 -48 -4 -57 -1 -80 21 -46 46 -28 142 31 165 43 17 62 20 136 21 l67
1 0 -49z"/>
<path d="M6210 5480 l0 -270 45 0 45 0 0 270 0 270 -45 0 -45 0 0 -270z"/>
<path d="M3810 5480 l0 -40 125 0 125 0 0 40 0 40 -125 0 -125 0 0 -40z"/>
<path d="M5310 4595 l0 -315 35 0 35 0 0 315 0 315 -35 0 -35 0 0 -315z"/>
<path d="M5580 4595 l0 -315 40 0 40 0 0 315 0 315 -40 0 -40 0 0 -315z"/>
<path d="M8008 4595 l-3 -315 38 0 c35 0 37 1 37 34 l0 34 33 -33 c44 -44 108
-55 172 -30 76 29 105 91 105 224 0 102 -12 150 -46 191 -52 62 -171 65 -231
5 l-33 -33 0 119 0 119 -35 0 -34 0 -3 -315z m246 84 c39 -18 58 -70 58 -163
1 -139 -27 -186 -109 -186 -87 0 -135 91 -119 221 14 113 85 166 170 128z"/>
<path d="M1670 4580 l0 -302 158 4 c174 5 205 13 271 73 59 53 85 122 85 225
1 103 -14 150 -66 206 -65 70 -118 87 -295 92 l-153 4 0 -302z m348 197 c107
-70 123 -256 31 -361 -49 -56 -88 -69 -204 -70 l-90 -1 -3 234 -2 233 113 -3
c104 -4 117 -6 155 -32z"/>
<path d="M2475 4736 c-50 -19 -100 -72 -114 -123 -16 -56 -13 -163 5 -216 26
-75 101 -127 187 -127 58 0 119 23 154 57 39 39 39 54 0 64 -20 5 -30 3 -40
-10 -39 -54 -131 -69 -181 -30 -34 27 -56 70 -56 109 l0 30 158 0 c87 0 161 2
164 5 9 9 -10 122 -27 159 -37 78 -156 116 -250 82z m153 -71 c16 -14 33 -37
36 -52 4 -16 9 -36 12 -45 5 -17 -5 -18 -120 -18 -121 0 -126 1 -126 21 0 34
31 89 59 104 43 23 105 19 139 -10z"/>
<path d="M3025 4741 c-75 -19 -105 -54 -105 -121 0 -72 40 -105 164 -136 37
-9 78 -25 91 -36 34 -27 33 -70 -1 -97 -50 -39 -183 -20 -199 29 -6 18 -12 20
-38 14 -43 -9 -44 -11 -26 -42 36 -65 141 -96 245 -73 93 21 138 89 111 168
-16 49 -48 70 -153 100 -49 13 -97 32 -106 40 -19 17 -23 50 -10 69 33 49 175
42 195 -11 9 -22 67 -20 67 3 0 25 -27 60 -60 77 -35 18 -133 27 -175 16z"/>
<path d="M3545 4735 c-46 -16 -95 -66 -95 -95 0 -17 7 -20 39 -20 32 0 40 4
45 23 7 29 44 47 96 47 53 0 88 -32 96 -87 l7 -43 -75 0 c-97 0 -169 -22 -202
-61 -45 -53 -33 -169 20 -204 62 -40 163 -26 219 32 22 23 35 30 35 21 0 -8 9
-27 21 -42 17 -22 28 -26 70 -26 46 0 49 2 49 25 0 20 -5 25 -24 25 -14 0 -28
6 -33 13 -4 6 -10 83 -13 169 -5 156 -5 157 -33 186 -47 49 -143 65 -222 37z
m181 -271 c-11 -82 -67 -134 -145 -134 -53 0 -86 38 -77 89 10 65 55 87 175
90 l54 1 -7 -46z"/>
<path d="M4150 4737 c-13 -7 -35 -30 -47 -52 l-23 -40 0 48 0 47 -35 0 -35 0
0 -230 0 -230 40 0 40 0 0 155 c0 167 7 198 52 229 12 9 37 16 56 16 32 0 33
2 30 33 -2 26 -8 32 -28 35 -14 1 -36 -4 -50 -11z"/>
<path d="M4513 4738 c-12 -6 -31 -29 -43 -52 l-20 -41 0 48 0 47 -35 0 -35 0
0 -230 0 -230 34 0 34 0 4 153 c6 204 26 247 114 247 21 0 24 5 24 35 0 32 -3
35 -27 34 -16 0 -38 -5 -50 -11z"/>
<path d="M4857 4738 c-51 -14 -103 -67 -118 -120 -29 -107 -8 -239 47 -293 85
-85 265 -63 318 40 25 48 34 188 16 255 -28 103 -136 151 -263 118z m141 -64
c38 -26 54 -70 55 -153 1 -136 -34 -191 -123 -191 -89 0 -125 56 -123 191 1
119 38 169 123 169 25 0 56 -7 68 -16z"/>
<path d="M5957 4736 c-51 -19 -76 -43 -98 -92 -40 -88 -33 -226 14 -295 64
-94 224 -105 308 -20 43 43 59 91 59 181 0 111 -31 184 -91 216 -43 22 -146
27 -192 10z m152 -62 c34 -24 51 -75 51 -152 0 -91 -7 -123 -34 -157 -19 -23
-32 -29 -77 -33 -48 -4 -59 -1 -86 22 -70 59 -71 252 -1 311 36 30 110 34 147
9z"/>
<path d="M7560 4738 c-52 -15 -86 -43 -109 -91 -27 -57 -35 -130 -22 -202 22
-119 84 -170 206 -169 80 0 118 16 160 66 l28 33 -33 13 c-30 12 -34 11 -47
-8 -32 -46 -119 -65 -172 -37 -30 15 -57 59 -66 110 l-7 37 166 0 166 0 0 30
c0 166 -118 262 -270 218z m124 -58 c31 -12 55 -47 63 -94 l6 -36 -128 0
c-112 0 -126 2 -121 16 3 9 6 25 6 36 0 11 15 35 34 54 27 27 42 34 74 34 23
0 52 -4 66 -10z"/>
<path d="M6683 4718 c4 -13 32 -117 64 -231 l58 -208 45 3 45 3 47 185 c26
102 48 190 48 195 1 6 23 -78 49 -185 l47 -195 45 -3 45 -3 47 163 c26 90 56
193 66 231 l20 67 -38 0 -38 0 -49 -197 -50 -196 -50 194 -51 194 -41 3 c-23
2 -42 1 -42 -2 0 -7 -90 -349 -97 -366 -3 -8 -26 71 -52 175 l-46 190 -39 3
c-36 3 -38 2 -33 -20z"/>
</g>
</svg>
